<svg xmlns="http://www.w3.org/2000/svg" viewBox="0 0 266.8 68.7" enable-background="new 0 0 266.8 68.7"><path d="M55.5 22.5c1.9 0 3.6.3 5 .8 1.5.5 2.7 1.3 3.7 2.2 1 .9 1.7 2.1 2.2 3.4.5 1.4.7 2.9.7 4.5v13.7c0 .6-.3 1.2-.9 1.7-.6.5-1.3.7-2.2.7-.9 0-1.6-.2-2.2-.7-.6-.5-.8-1.1-.8-1.7v-13.4c0-1.9-.5-3.3-1.6-4.2-1-.9-2.3-1.4-3.9-1.4s-2.9.5-3.9 1.4c-1 .9-1.6 2.3-1.6 4.2v13.4c0 .6-.3 1.2-.8 1.7s-1.2.7-2.1.7c-.9 0-1.7-.2-2.3-.7-.6-.5-.8-1.1-.8-1.7v-13.2c0-1.6.2-3.1.7-4.5.5-1.4 1.2-2.6 2.2-3.7 1-1 2.2-1.8 3.6-2.4 1.4-.5 3-.8 5-.8"/><path d="M92.3 49.8c-.9 0-1.6-.3-2.1-.8s-.6-1.2-1-1.7c0 0-.2-.5-.5-.7-.1-.1-.5-.2-.5-.2-.3.5-1 .9-1.4 1.3-.3.4-.8.6-1.3.9-.5.3-1.1.5-1.9.6-.7.2-1.6.3-2.6.3-1.7 0-3.1-.3-4.4-.9-1.3-.6-2.3-1.4-3.1-2.4-.8-1-1.4-2.1-1.8-3.3-.4-1.3-.6-2.5-.6-3.9v-4.6c0-1.5.3-2.9.8-4.3s1.3-2.7 2.3-3.9c1-1.1 2.3-2.1 3.8-2.8 1.5-.7 3.3-1.1 5.4-1.1 1.9 0 3.6.3 5 .8s2.5 1.3 3.4 2.2c.9.9 1.6 2 2 3.2.4 1.3.6 2.6.6 4.1v10.6c0 .9 1.3 3.2 1.4 3.6.2.6-.7 1.6-1.2 2.1-.5.7-1.3.9-2.3.9m-3.9-16.9c0-1.7-.4-3-1.3-3.7-.8-.7-2-1.1-3.6-1.1-.9 0-1.7.2-2.5.5-.7.3-1.4.8-1.9 1.4-.5.6-.9 1.2-1.3 1.9-.3.7-.4 1.5-.4 2.3v5c0 1.3.5 2.3 1.4 3.2.9.9 2.1 1.4 3.5 1.4.8 0 1.5-.1 2.2-.4.7-.3 1.4-.7 1.9-1.1.6-.5 1-1.2 1.4-1.9.3-.8.5-1.7.5-2.7l.1-4.8"/><path d="M110.9 22.5c1.9 0 3.6.3 5 .8 1.5.5 2.7 1.3 3.7 2.2 1 .9 1.7 2.1 2.2 3.4.5 1.4.7 2.9.7 4.5v13.7c0 .6-.3 1.2-.9 1.7-.6.5-1.3.7-2.2.7-.9 0-1.6-.2-2.2-.7-.6-.5-.8-1.1-.8-1.7v-13.4c0-1.9-.5-3.3-1.6-4.2-1-.9-2.3-1.4-3.9-1.4s-2.9.5-3.9 1.4c-1 .9-1.6 2.3-1.6 4.2v13.4c0 .6-.3 1.2-.8 1.7s-1.2.7-2.1.7c-.9 0-1.7-.2-2.3-.7-.6-.5-.8-1.1-.8-1.7v-13.2c0-1.6.2-3.1.7-4.5.5-1.4 1.2-2.6 2.2-3.7 1-1 2.2-1.8 3.6-2.4 1.4-.5 3.1-.8 5-.8"/><path d="M126.4 34.4c0-1.6.2-3.2.7-4.6.5-1.5 1.2-2.7 2.1-3.8 1-1.1 2.2-2 3.7-2.6 1.5-.6 3.3-.9 5.3-.9s3.8.3 5.3.9c1.5.6 2.7 1.5 3.7 2.6s1.7 2.3 2.1 3.8c.5 1.4.7 3 .7 4.6v3.6c0 1.6-.2 3-.7 4.4-.5 1.4-1.2 2.6-2.1 3.7-1 1-2.2 1.9-3.7 2.5-1.5.6-3.3.9-5.3.9-2.1 0-3.8-.3-5.3-.9-1.5-.6-2.7-1.5-3.7-2.5-.9-1-1.7-2.3-2.1-3.7-.5-1.4-.7-2.9-.7-4.4v-3.6m6.2 3.7c0 1.9.5 3.4 1.5 4.4 1 1 2.4 1.6 4.2 1.6 1.8 0 3.2-.5 4.2-1.6 1-1 1.5-2.5 1.5-4.4v-3.8c0-2.1-.5-3.7-1.5-4.7-1-1.1-2.4-1.6-4.2-1.6-1.8 0-3.2.5-4.2 1.6s-1.5 2.7-1.5 4.7v3.8"/><path d="M160.3 25l.3.2c.7-.9 1.6-1.5 2.6-2s2.2-.7 3.5-.7c1.9 0 3.6.3 5 .9 1.4.6 2.5 1.4 3.4 2.6.9 1.1 1.6 2.4 2 3.9.5 1.5.7 3.1.7 4.9v3c0 1.6-.2 3.2-.7 4.6-.5 1.4-1.2 2.7-2.1 3.8-1 1.1-2.2 1.9-3.7 2.6-1.4.6-3.1.9-5.1.9-2 0-3.8-.3-5.3-.8s-2.7-1.3-3.8-2.2c-1-.9-1.8-2-2.3-3.3-.5-1.3-.7-2.7-.7-4.2v-23.1c0-.6.3-1.2.8-1.7.6-.5 1.4-.8 2.3-.8.9 0 1.6.3 2.1.8.6.5.8 1 .8 1.7l.2 8.9m5.5 3.2c-1.5 0-2.8.4-3.9 1.3-1 .8-1.5 2.2-1.6 4v6c0 1.6.6 2.7 1.7 3.4 1.1.7 2.6 1.1 4.3 1.1 1.6 0 2.9-.6 3.9-1.7s1.5-2.6 1.5-4.4v-3.1c0-2.2-.6-3.8-1.7-4.9-1-1.2-2.4-1.7-4.2-1.7"/><path d="M220.7 28.2c-.8 0-1.5.1-2.1.2-.6.1-1.2.3-1.6.6-.4.3-.7.8-1 1.4-.2.6-.3 1.4-.3 2.3v14.6c0 .6-.3 1.2-.8 1.7s-1.2.7-2.1.7c-.9 0-1.7-.2-2.3-.7-.6-.5-.8-1.1-.8-1.7v-14.5c0-3.3.9-5.8 2.7-7.6 1.8-1.8 4.6-2.7 8.4-2.7 1.8 0 3.1.3 4 1 .9.7 1.3 1.7 1.1 2.9-.1.6-.3 1.1-.7 1.4-.3.2-.8.4-1.3.5h-1.6c-.5-.1-1.1-.1-1.6-.1"/><path d="M201.8 49.8c-.9 0-1.6-.3-2.1-.8s-.6-1.2-1-1.7c0 0-.2-.5-.5-.7-.1-.1-.5-.2-.5-.2-.3.5-1 .9-1.4 1.3-.3.4-.8.6-1.3.9-.5.3-1.1.5-1.9.6-.7.2-1.6.3-2.6.3-1.7 0-3.1-.3-4.4-.9-1.3-.6-2.3-1.4-3.1-2.4-.8-1-1.4-2.1-1.8-3.3-.4-1.3-.6-2.5-.6-3.9v-4.6c0-1.5.3-2.9.8-4.3s1.3-2.7 2.3-3.9c1-1.1 2.3-2.1 3.8-2.8 1.5-.7 3.3-1.1 5.4-1.1 1.9 0 3.6.3 5 .8s2.5 1.3 3.4 2.2c.9.9 1.6 2 2 3.2.4 1.3.6 2.6.6 4.1v10.6c0 .9 1.3 3.2 1.4 3.6.2.6-.7 1.6-1.2 2.1-.5.7-1.3.9-2.3.9m-3.9-16.9c0-1.7-.4-3-1.3-3.7-.8-.7-2-1.1-3.6-1.1-.9 0-1.7.2-2.5.5-.7.3-1.4.8-1.9 1.4-.5.6-.9 1.2-1.3 1.9-.3.7-.4 1.5-.4 2.3v5c0 1.3.5 2.3 1.4 3.2s2.1 1.4 3.5 1.4c.8 0 1.5-.1 2.2-.4.7-.3 1.4-.7 1.9-1.1.6-.5 1-1.2 1.4-1.9.3-.8.5-1.7.5-2.7l.1-4.8"/><path d="M9.2 0c1.3.1 2.2.5 2.7 1.1.5.6.7 1.3.7 2-.1.7-.4 1.3-.8 1.8-.5.5-1.3.8-2.5.9h-2.8v56.9h2.4c1.3.1 2.2.5 2.7 1.1.5.7.7 1.5.5 2.2-.1.6-.4 1.2-.9 1.7s-1.2.8-2.3.8h-6c-1-.2-1.7-.6-2.2-1.1-.5-.4-.7-1.2-.7-2.2v-61.7c0-1 .2-1.8.7-2.4.5-.5 1.2-.9 2.2-1.1h6.3"/><path d="M263.8 0c1 .2 1.7.6 2.2 1.1.5.5.7 1.3.7 2.4v61.7c0 1-.2 1.8-.7 2.3-.5.5-1.2.9-2.2 1.1h-5.9c-1.1-.1-1.9-.4-2.4-.8-.5-.5-.8-1-.8-1.7-.1-.8.1-1.5.5-2.2.5-.7 1.4-1.1 2.7-1.1h2.4v-56.9h-2.7c-1.1-.1-1.9-.4-2.4-.9s-.8-1.1-.8-1.8c-.1-.7.1-1.4.6-2 .5-.7 1.4-1.1 2.7-1.1l6.1-.1"/></svg>